<svg width="29" height="29" viewBox="0 0 29 29" fill="none" xmlns="http://www.w3.org/2000/svg">
<path d="M14.8113 3.39798C18.5955 3.39798 19.0443 3.41203 20.5396 3.47996C24.3805 3.65329 26.1746 5.4604 26.3494 9.24092C26.4179 10.7224 26.4309 11.1675 26.4309 14.9199C26.4309 18.6735 26.4167 19.1173 26.3494 20.5989C26.1734 24.3759 24.3841 26.1865 20.5396 26.3598C19.0443 26.4278 18.5979 26.4418 14.8113 26.4418C11.027 26.4418 10.5782 26.4278 9.0841 26.3598C5.23372 26.1853 3.44908 24.37 3.27428 20.5977C3.20577 19.1162 3.1916 18.6723 3.1916 14.9187C3.1916 11.1663 3.20695 10.7224 3.27428 9.23975C3.45026 5.4604 5.23962 3.65212 9.0841 3.47879C10.5794 3.41203 11.027 3.39798 14.8113 3.39798ZM14.8113 0.864746C10.9621 0.864746 10.4802 0.881142 8.96836 0.94907C3.82112 1.1833 0.960502 4.01518 0.724282 9.1238C0.654597 10.6241 0.638062 11.1019 0.638062 14.9187C0.638062 18.7355 0.654597 19.2146 0.723101 20.7136C0.959321 25.8176 3.81522 28.6541 8.96717 28.8884C10.4802 28.9563 10.9621 28.9727 14.8113 28.9727C18.6605 28.9727 19.1435 28.9563 20.6553 28.8884C25.7978 28.6541 28.6655 25.8223 28.8982 20.7136C28.9679 19.2146 28.9844 18.7355 28.9844 14.9187C28.9844 11.1019 28.9679 10.6241 28.8994 9.12497C28.6679 4.02572 25.8085 1.18447 20.6565 0.950241C19.1435 0.881142 18.6605 0.864746 14.8113 0.864746ZM14.8113 7.70201C10.792 7.70201 7.53332 10.9332 7.53332 14.9187C7.53332 18.9042 10.792 22.1366 14.8113 22.1366C18.8305 22.1366 22.0892 18.9054 22.0892 14.9187C22.0892 10.9332 18.8305 7.70201 14.8113 7.70201ZM14.8113 19.6034C12.2022 19.6034 10.0869 17.507 10.0869 14.9187C10.0869 12.3316 12.2022 10.2341 14.8113 10.2341C17.4203 10.2341 19.5357 12.3316 19.5357 14.9187C19.5357 17.507 17.4203 19.6034 14.8113 19.6034ZM22.3774 5.73094C21.4372 5.73094 20.6754 6.48634 20.6754 7.41741C20.6754 8.34849 21.4372 9.10389 22.3774 9.10389C23.3163 9.10389 24.077 8.34849 24.077 7.41741C24.077 6.48634 23.3163 5.73094 22.3774 5.73094Z" fill="black"/>
</svg>
