<svg width="31" height="21" viewBox="0 0 31 21" fill="none" xmlns="http://www.w3.org/2000/svg">
<path d="M4.33178 0.0175781H26.7576C28.7562 0.0175781 30.3824 1.6659 30.3824 3.69175V16.7641C30.3824 18.7899 28.7562 20.4382 26.7576 20.4382H4.33178C2.33317 20.4382 0.707001 18.7899 0.707001 16.7641V3.69215C0.706606 1.6659 2.33277 0.0175781 4.33178 0.0175781ZM6.10299 2.41456L15.5447 8.58038L24.9864 2.41456H6.10299ZM4.33178 18.0417H26.7576C27.4524 18.0417 28.0176 17.4684 28.0176 16.7645V3.76006L16.2742 11.4144C16.2585 11.4244 16.2415 11.4312 16.2254 11.4404C16.2084 11.45 16.1911 11.4592 16.1737 11.4679C16.0827 11.5155 15.9889 11.5538 15.8931 11.579C15.8832 11.5818 15.8734 11.583 15.8635 11.5854C15.7583 11.6106 15.6519 11.6261 15.5455 11.6261H15.5447C15.5439 11.6261 15.5431 11.6261 15.5431 11.6261C15.4367 11.6261 15.3303 11.611 15.2251 11.5854C15.2152 11.583 15.2053 11.5818 15.1955 11.579C15.0997 11.5538 15.0063 11.5155 14.9149 11.4679C14.8975 11.4592 14.8802 11.45 14.8632 11.4404C14.8471 11.4312 14.8301 11.4244 14.8144 11.4144L3.07097 3.76006V16.7641C3.07137 17.4684 3.63694 18.0417 4.33178 18.0417Z" fill="black"/>
</svg>
